/* XPM */
static char *af8744f4dd054e5987a10fc03e9e5bc5ddiC57h4snRr5hQw[] = {
/* columns rows colors chars-per-pixel */
"64 64 6 1 ",
"  c #990030",
". c #FF7E00",
"X c #22B14C",
"o c #6F3198",
"O c #4D6DF3",
"+ c #FFF9BD",
/* pixels */
"                                                                ",
"                                                                ",
"                                                                ",
"                                                                ",
"    OOOOOOOOOOOOOOOOOOOOOOOOOOOOOOOOOOOOOOOOOOOOOOOOOOOOOOO     ",
"    OOOOOOOOOOOOOOOOOOOOOOOOOOOOOOOOOOOOOOOOOOOOOOOOOOOOOOO     ",
"    OOOOOOOOOOOOOOOOOOOOOOOOOOOOOOOOOOOOOOOOOOOOOOOOOOOOOOO     ",
"    OOOOOOOOOOOOOOOOOOOOOOOOOOOOOOOOOOOOOOOOOOOOOOOOOOOOOOO     ",
"    OOOOOOOOOOOOOOOOOOOOOOOOOOOOOOOOOOOOOOOOOOOOOOOOOOOOOOO     ",
"    OOOOOOOOOOOOOOOOOOOOOOOOOOOOOOOOOOOOOOOOOOOOOOOOOOOOOOO     ",
"    OOOOOOoooooooooooooooooooooooooooooooooooooooooooOOOOOO     ",
"    OOOOOOoooooooooooooooooooooooooooooooooooooooooooOOOOOO     ",
"    OOOOOOoooooooooooooooooooooooooooooooooooooooooooOOOOOO     ",
"    OOOOOOoooooooooooooooooooooooooooooooooooooooooooOOOOOO     ",
"    OOOOOOoooooooooooooooooooooooooooooooooooooooooooOOOOOO     ",
"    OOOOOOoooooooooooooooooooooooooooooooooooooooooooOOOOOO     ",
"    OOOOOOoooooooooooooooooooooooooooooooooooooooooooOOOOOO     ",
"    OOOOOOooooooo.............................oooooooOOOOOO     ",
"    OOOOOOooooooo.............................oooooooOOOOOO     ",
"    OOOOOOooooooo..+++++++++++++++++++++++++..oooooooOOOOOO     ",
"    OOOOOOooooooo..+++++++++++++++++++++++++..oooooooOOOOOO     ",
"    OOOOOOooooooo..+++++++++++++++++++++++++..oooooooOOOOOO     ",
"    OOOOOOooooooo..+++++++++++++++++++++++++..oooooooOOOOOO     ",
"    OOOOOOooooooo.............................oooooooOOOOOO     ",
"    OOOOOOooooooo..++++...XXXXXXXXXXX...++++..oooooooOOOOOO     ",
"    OOOOOOooooooo..++++...XXXXXXXXXXX...++++..oooooooOOOOOO     ",
"    OOOOOOooooooo..++++...XXXXXXXXXXX...++++..oooooooOOOOOO     ",
"    OOOOOOooooooo..++++..XXXXXXXXXXXXX..++++..oooooooOOOOOO     ",
"    OOOOOOooooooo..++++..XXXXXXXXXXXXX..++++..oooooooOOOOOO     ",
"    OOOOOOooooooo..++++..XXXXXXXXXXXXX..++++..oooooooOOOOOO     ",
"    OOOOOOooooooo..++++..XXXXXXXXXXXXX..++++..oooooooOOOOOO     ",
"    OOOOOOooooooo..++++..XXXXXXXXXXXXX..++++..oooooooOOOOOO     ",
"    OOOOOOooooooo..++++..XXXXXXXXXXXXX..++++..oooooooOOOOOO     ",
"    OOOOOOooooooo..++++..XXXXXXXXXXXXX..++++..oooooooOOOOOO     ",
"    OOOOOOooooooo..++++..XXXXXXXXXXXXX..++++..oooooooOOOOOO     ",
"    OOOOOOooooooo..++++..XXXXXXXXXXXXX..++++..oooooooOOOOOO     ",
"    OOOOOOooooooo..++++..XXXXXXXXXXXXX..++++..oooooooOOOOOO     ",
"    OOOOOOooooooo..++++...XXXXXXXXXXX...++++..oooooooOOOOOO     ",
"    OOOOOOooooooo..++++...XXXXXXXXXXX...++++..oooooooOOOOOO     ",
"    OOOOOOooooooo..++++.................++++..oooooooOOOOOO     ",
"    OOOOOOooooooo..++++.+++++++++++++++.++++..oooooooOOOOOO     ",
"    OOOOOOooooooo..++++.+++++++++++++++.++++..oooooooOOOOOO     ",
"    OOOOOOooooooo..++++.+++++++++++++++.++++..oooooooOOOOOO     ",
"    OOOOOOooooooo..++++.+++++++++++++++.++++..oooooooOOOOOO     ",
"    OOOOOOooooooo.............................oooooooOOOOOO     ",
"    OOOOOOooooooo.............................oooooooOOOOOO     ",
"    OOOOOOooooooo.............................oooooooOOOOOO     ",
"    OOOOOOoooooooooooooooooooooooooooooooooooooooooooOOOOOO     ",
"    OOOOOOoooooooooooooooooooooooooooooooooooooooooooOOOOOO     ",
"    OOOOOOoooooooooooooooooooooooooooooooooooooooooooOOOOOO     ",
"    OOOOOOoooooooooooooooooooooooooooooooooooooooooooOOOOOO     ",
"    OOOOOOoooooooooooooooooooooooooooooooooooooooooooOOOOOO     ",
"    OOOOOOoooooooooooooooooooooooooooooooooooooooooooOOOOOO     ",
"    OOOOOOoooooooooooooooooooooooooooooooooooooooooooOOOOOO     ",
"    OOOOOOOOOOOOOOOOOOOOOOOOOOOOOOOOOOOOOOOOOOOOOOOOOOOOOOO     ",
"    OOOOOOOOOOOOOOOOOOOOOOOOOOOOOOOOOOOOOOOOOOOOOOOOOOOOOOO     ",
"    OOOOOOOOOOOOOOOOOOOOOOOOOOOOOOOOOOOOOOOOOOOOOOOOOOOOOOO     ",
"    OOOOOOOOOOOOOOOOOOOOOOOOOOOOOOOOOOOOOOOOOOOOOOOOOOOOOOO     ",
"    OOOOOOOOOOOOOOOOOOOOOOOOOOOOOOOOOOOOOOOOOOOOOOOOOOOOOOO     ",
"    OOOOOOOOOOOOOOOOOOOOOOOOOOOOOOOOOOOOOOOOOOOOOOOOOOOOOOO     ",
"                                                                ",
"                                                                ",
"                                                                ",
"                                                                "
};
